<svg xmlns="http://www.w3.org/2000/svg" width="11.442" height="12.888" viewBox="0 0 11.442 12.888">
  <path id="delete_FILL0_wght200_GRAD0_opsz24" d="M202.138-777.882a1.273,1.273,0,0,1-.934-.386,1.273,1.273,0,0,1-.386-.934v-10.122H200v-.817h3.269v-.629h4.9v.629h3.269v.817h-.817V-779.2a1.279,1.279,0,0,1-.378.942,1.279,1.279,0,0,1-.942.378h-7.167Zm7.67-11.442h-8.173V-779.2a.49.49,0,0,0,.141.362.49.49,0,0,0,.361.141H209.3a.481.481,0,0,0,.346-.157.481.481,0,0,0,.157-.346Zm-5.878,8.99h.817v-7.356h-.817Zm2.766,0h.817v-7.356H206.7Zm-5.061-8.99v0Z" transform="translate(-200 790.77)" fill="#747474"/>
</svg>
