<svg xmlns="http://www.w3.org/2000/svg" width="16.88" height="16" viewBox="0 0 16.88 16">
  <path id="query_stats_FILL0_wght200_GRAD0_opsz24" d="M67.591-839.482l-.668-.489,3.584-5.737,2.452,2.86L76.2-848.1l1.677,2.529q-.234.036-.433.081a3.987,3.987,0,0,0-.4.114l-.811-1.209-3.137,5.11-2.472-2.881Zm15.6,3.943-2.806-2.774a2.777,2.777,0,0,1-.791.413,2.827,2.827,0,0,1-.9.143,2.762,2.762,0,0,1-2.031-.829,2.762,2.762,0,0,1-.829-2.031,2.762,2.762,0,0,1,.829-2.031,2.762,2.762,0,0,1,2.031-.829,2.762,2.762,0,0,1,2.031.829,2.762,2.762,0,0,1,.829,2.031,2.809,2.809,0,0,1-.151.922,2.756,2.756,0,0,1-.437.8l2.806,2.769Zm-4.5-3.035a1.973,1.973,0,0,0,1.451-.593,1.973,1.973,0,0,0,.593-1.451,1.973,1.973,0,0,0-.593-1.451,1.973,1.973,0,0,0-1.451-.593,1.973,1.973,0,0,0-1.451.593,1.973,1.973,0,0,0-.593,1.451,1.973,1.973,0,0,0,.593,1.451A1.973,1.973,0,0,0,78.694-838.574Zm1.5-6.821a4.094,4.094,0,0,0-.4-.116,3.028,3.028,0,0,0-.413-.068l3.749-5.96.668.489Z" transform="translate(-66.923 851.539)" fill="#1a73e8"/>
</svg>
