<svg xmlns="http://www.w3.org/2000/svg" width="13.02" height="13.077" viewBox="0 0 13.02 13.077">
  <path id="update_FILL0_wght200_GRAD0_opsz24" d="M167.307-786.923a6.379,6.379,0,0,1-2.549-.512,6.591,6.591,0,0,1-2.078-1.4,6.592,6.592,0,0,1-1.4-2.078,6.379,6.379,0,0,1-.512-2.549,6.379,6.379,0,0,1,.512-2.549,6.592,6.592,0,0,1,1.4-2.078,6.592,6.592,0,0,1,2.078-1.4,6.38,6.38,0,0,1,2.549-.512,6.385,6.385,0,0,1,2.682.581,6.791,6.791,0,0,1,2.222,1.622v-1.952h.817v3.395h-3.395v-.817h2.028a6.36,6.36,0,0,0-1.969-1.476,5.437,5.437,0,0,0-2.384-.536,5.52,5.52,0,0,0-4.056,1.665,5.519,5.519,0,0,0-1.665,4.056,5.519,5.519,0,0,0,1.665,4.056,5.52,5.52,0,0,0,4.056,1.665,5.472,5.472,0,0,0,3.734-1.4,5.721,5.721,0,0,0,1.921-3.507h.827a6.244,6.244,0,0,1-2.141,4.1A6.368,6.368,0,0,1,167.307-786.923Zm2.571-3.389-2.98-2.98v-4.256h.817v3.917l2.741,2.741Z" transform="translate(-160.769 800)" fill="#fff"/>
</svg>
