<?xml version="1.0" encoding="utf-8"?>
<!-- Generator: Adobe Illustrator 27.5.0, SVG Export Plug-In . SVG Version: 6.00 Build 0)  -->
<svg version="1.1" id="Warstwa_1" xmlns="http://www.w3.org/2000/svg" xmlns:xlink="http://www.w3.org/1999/xlink" x="0px" y="0px"
	 viewBox="0 0 32 32" style="enable-background:new 0 0 32 32;" xml:space="preserve">
<style type="text/css">
	.st0{fill:#FFFFFF;}
	.st1{fill:#1066D9;}
	.st2{fill:#35A953;}
	.st3{fill:#EB4336;}
	.st4{fill:#FBB908;}
</style>
<g>
	<rect y="0" width="32" height="32"/>
	<g>
		<path class="st0" d="M25.3,23.7l-4.8-4.8c-0.4,0.3-0.8,0.6-1.3,0.8s-1,0.3-1.5,0.3c-1.2,0-2.3-0.4-3.1-1.3
			c-0.9-0.9-1.3-1.9-1.3-3.1s0.4-2.3,1.3-3.1c0.9-0.9,1.9-1.3,3.1-1.3c1.2,0,2.3,0.4,3.1,1.3c0.9,0.9,1.3,1.9,1.3,3.1
			c0,0.5-0.1,1.1-0.3,1.6c-0.2,0.5-0.4,0.9-0.7,1.3l4.8,4.8L25.3,23.7z M17.7,19.2c1,0,1.9-0.4,2.6-1.1c0.7-0.7,1.1-1.6,1.1-2.6
			S21,13.7,20.3,13c-0.7-0.7-1.6-1.1-2.6-1.1c-1,0-1.9,0.4-2.6,1.1c-0.7,0.7-1.1,1.6-1.1,2.6s0.4,1.9,1.1,2.6
			C15.8,18.8,16.7,19.2,17.7,19.2z"/>
		<rect x="6.1" y="7" class="st1" width="13.9" height="0.8"/>
		<rect x="6.1" y="24.2" class="st1" width="13.9" height="0.8"/>
		<rect x="6.1" y="20" class="st2" width="6.3" height="0.8"/>
		<rect x="6.1" y="11.2" class="st3" width="6.3" height="0.8"/>
		<rect x="6.1" y="15.6" class="st4" width="4.7" height="0.8"/>
	</g>
</g>
</svg>
